<?xml version="1.0" encoding="UTF-8"?>
<svg id="Outline" xmlns="http://www.w3.org/2000/svg" xmlns:xlink="http://www.w3.org/1999/xlink" viewBox="0 0 256 256">
  <defs>
    <style>
      .cls-1 {
        fill: #fff;
      }

      .cls-2 {
        fill: #3a61df;
      }

      .cls-3 {
        fill: #113251;
      }

      .cls-4 {
        fill: #2a3585;
      }

      .cls-5 {
        fill: #391d12;
      }

      .cls-6 {
        fill: #efeff4;
      }

      .cls-7 {
        fill: url(#linear-gradient);
      }

      .cls-8 {
        fill: #ce3a4a;
      }

      .cls-9 {
        fill: #d1d1df;
      }
    </style>
    <linearGradient id="linear-gradient" x1="21.02" y1="124.75" x2="236.04" y2="124.75" gradientTransform="matrix(1, 0, 0, 1, 0, 0)" gradientUnits="userSpaceOnUse">
      <stop offset="0" stop-color="#ffb6ed"/>
      <stop offset="1" stop-color="#685ba0"/>
    </linearGradient>
  </defs>
  <g>
    <path class="cls-7" d="M225.69,109.97c-6.28-9.14-11.39-19.01-15.53-29.3-12.08-30.06-41.5-51.29-75.88-51.29-27.75,0-52.27,13.83-67.05,34.97-4.01,5.74-9.13,10.61-15.08,14.3-18.78,11.64-31.14,32.48-31.14,56.22,0,15.78,6.47,30.02,15.36,42.15,20,27.28,52.03,43.12,85.86,43.1h13.82c33.1-.03,64.45-15.28,84.54-41.58,8.73-11.42,15.35-23.69,15.44-34.69,.11-12.58-3.73-24.27-10.35-33.89Z"/>
    <path class="cls-6" d="M121.63,226.62c-17.64,0-35.27-4.15-50.97-12.01-15.82-7.91-29.66-19.58-40.04-33.74-11.02-15.04-16.61-30.51-16.61-45.99,0-12.59,3.24-24.99,9.36-35.84,5.96-10.56,14.55-19.52,24.84-25.9,5.2-3.23,9.64-7.43,13.18-12.5,7.97-11.41,18.67-20.89,30.93-27.42l.59,1.1c-12.09,6.44-22.63,15.79-30.49,27.04-3.64,5.21-8.2,9.53-13.55,12.85-10.11,6.27-18.55,15.07-24.41,25.45-6.02,10.67-9.2,22.85-9.2,35.23,0,15.21,5.51,30.43,16.37,45.25,10.26,14,23.95,25.53,39.59,33.36,15.53,7.77,32.97,11.88,50.42,11.88h13.9v1.23h-13.9Z"/>
    <path class="cls-6" d="M225.23,182.49l-.99-.76c10.87-14.23,16.43-26.95,16.52-37.83h1.24c-.09,11.16-5.74,24.14-16.77,38.59Z"/>
    <rect class="cls-1" x="124.74" y="76.93" width="66.61" height="114.26"/>
    <g>
      <rect class="cls-2" x="143.05" y="83.01" width="29.99" height="3.74"/>
      <rect class="cls-9" x="143.05" y="89.6" width="29.99" height="17.35"/>
      <rect class="cls-8" x="143.05" y="108.64" width="29.99" height="33.6"/>
      <rect class="cls-9" x="143.05" y="144.16" width="29.99" height="18.88"/>
      <rect class="cls-9" x="143.05" y="165.07" width="29.99" height="20.62"/>
      <rect class="cls-9" x="174.99" y="83.01" width="10.7" height="16.24"/>
      <g>
        <rect class="cls-9" x="174.99" y="102.24" width="10.7" height="1.12"/>
        <rect class="cls-9" x="174.99" y="105.69" width="10.7" height="1.12"/>
        <rect class="cls-9" x="174.99" y="109.14" width="10.7" height="1.12"/>
        <rect class="cls-9" x="174.99" y="112.59" width="10.7" height="1.12"/>
      </g>
      <rect class="cls-9" x="130.38" y="83.01" width="10.72" height="47.46"/>
      <rect class="cls-1" x="146.36" y="111.95" width="23.37" height="10.55"/>
      <rect class="cls-1" x="146.36" y="92.12" width="23.37" height="12.31"/>
      <rect class="cls-1" x="146.36" y="146.52" width="23.37" height="14.16"/>
      <g>
        <rect class="cls-1" x="146.36" y="125.9" width="23.37" height="1.12"/>
        <rect class="cls-1" x="146.36" y="129.35" width="10.03" height="1.12"/>
        <rect class="cls-1" x="146.36" y="132.79" width="15.01" height="1.12"/>
        <rect class="cls-1" x="164.45" y="132.79" width="5.28" height="1.12"/>
        <rect class="cls-1" x="146.36" y="136.24" width="23.37" height="1.12"/>
      </g>
    </g>
    <g>
      <path class="cls-4" d="M179.2,124.31l14.66-3.76c-.37,2.13,.69,5,2.34,6.38l11.31,9.25c.72,.6,.6,1.73-.22,2.18l-3.6,1.95c-.48,.26-1.06,.2-1.48-.15l-11.94-9.77c-1.02-.85-11.09-6.08-11.09-6.08Z"/>
      <polygon class="cls-8" points="218.55 77.4 239.98 116.88 199.52 124.14 190.41 107.36 218.55 77.4"/>
      <path class="cls-4" d="M179.44,115.79c-3.03,1.65-4.16,5.44-2.51,8.48l1.07,1.97c1.65,3.03,5.44,4.16,8.48,2.51l6.23-3.38,6.81-1.22-9.11-16.78-4.74,5.04-6.23,3.38Z"/>
    </g>
    <g>
      <circle class="cls-1" cx="55.6" cy="104.43" r="11.19"/>
      <path class="cls-8" d="M57.49,109.89s2.81-5.34,3.22-7.47c.11-.58-.02-1.21-.32-1.79-.63-1.22-2.04-1.88-3.39-1.57-1.32,.3-2.21,1.38-2.36,2.61-.88-.87-2.25-1.17-3.47-.59-1.24,.59-1.95,1.98-1.69,3.33,.13,.65,.41,1.22,.86,1.61,1.64,1.42,7.15,3.87,7.15,3.87Z"/>
    </g>
    <g>
      <g>
        <polygon class="cls-1" points="156.13 53.75 141.93 56.48 138.65 49.38 156.13 53.75"/>
        <polygon class="cls-8" points="156.13 53.75 141.93 56.48 141.52 64.29 156.13 53.75"/>
      </g>
      <path class="cls-1" d="M205.87,157.92l-.56-.49c8.19-9.44,12.94-17.57,14.2-19.84l.65,.36c-1.27,2.28-6.04,10.47-14.28,19.96Z"/>
      <path class="cls-1" d="M145.31,193.89l-.12-.74c6.9-1.11,13.73-3.08,20.29-5.86l.29,.69c-6.62,2.8-13.5,4.79-20.46,5.91Z"/>
      <path class="cls-1" d="M107.72,192.55c-14.89-3.05-26.95-8.72-35.84-16.87l.5-.55c8.79,8.05,20.72,13.67,35.48,16.69l-.15,.73Z"/>
      <path class="cls-1" d="M55.78,129.4l-.74-.07c.32-3.67,.94-7.38,1.83-11.03l.73,.18c-.88,3.62-1.49,7.29-1.81,10.92Z"/>
      <path class="cls-1" d="M67.07,96.61l-.62-.41c2.32-3.53,5.01-6.94,8-10.12l.54,.51c-2.95,3.15-5.62,6.52-7.92,10.02Z"/>
      <path class="cls-1" d="M100.43,67.97l-.33-.67c11.49-5.7,24.21-9.35,37.8-10.84l.08,.74c-13.5,1.48-26.13,5.1-37.54,10.76Z"/>
    </g>
    <g>
      <path class="cls-1" d="M132.16,104.32l3.08-1.29c.8-.33,1.43-.99,1.74-1.8l.95-2.56c.06-.17-.13-.31-.27-.2l-2.61,2.01c-.27,.21-.64,.25-.95,.1-.69-.33-1.51-.29-2.17,.1l-1.08,.64,1.32,3Z"/>
      <path class="cls-5" d="M95.82,55.79h2.8c.69,0,1.25,.56,1.25,1.25v4.28c0,1.02-.83,1.84-1.84,1.84h-2.21v-7.37h0Z" transform="translate(13.08 -17.5) rotate(10.95)"/>
      <path class="cls-8" d="M80.89,116.96l3.01,42.28,2.74,40.45h3.14l2.71-40.45-.68-30.55h1.7l2.78,29.24-23.95,36.4,2.16,2.28,28.45-34.77c1.37-1.68,2.09-3.8,2.02-5.97l-1.24-38.92h-22.84Z"/>
      <g>
        <polygon class="cls-3" points="95.64 203.19 92.71 203.19 89.78 202.24 89.78 199.68 92.71 201.1 95.64 201.8 95.64 203.19"/>
        <polygon class="cls-3" points="88.86 203.19 86.64 203.19 86.64 199.68 89.78 199.68 89.78 202.24 88.86 203.19"/>
      </g>
      <g>
        <polygon class="cls-3" points="75.98 203.28 73.96 201.15 72.63 198.37 74.49 196.61 75.47 199.72 76.99 202.33 75.98 203.28"/>
        <polygon class="cls-3" points="71.32 198.36 69.79 196.74 72.33 194.33 74.49 196.61 72.63 198.37 71.32 198.36"/>
      </g>
      <path class="cls-4" d="M80.89,120.68h22.95l-.12-20.18,3.73-20.47c1.25-3.19-1.1-6.63-4.53-6.63h-23.44c-3.42,0-5.77,3.44-4.53,6.63l5.92,20.47v20.18Z"/>
      <path class="cls-1" d="M89.47,59.36h8.44v8.05c0,.94-.76,1.7-1.7,1.7h-5.8c-.52,0-.95-.43-.95-.95v-8.79h0Z" transform="translate(13.9 -16.62) rotate(10.95)"/>
      <polygon class="cls-1" points="94.77 64.97 90.81 65.87 88.75 73.45 93.65 75.14 95.64 73.45 94.77 64.97"/>
      <path class="cls-5" d="M89.75,64.5l-.77-.15c-.25-.05-.41-.29-.36-.53l1.04-5.39,1.22,.24-1.13,5.83Z"/>
      <path class="cls-5" d="M96.61,59.98l-6.99-1.35,.75-3.9c.13-.7,.81-1.15,1.51-1.02l5.73,1.11c.65,.13,1.07,.75,.95,1.4l-.54,2.82c-.13,.65-.75,1.07-1.4,.95Z"/>
      <path class="cls-5" d="M90.95,61.21l-.66-.13,1.29-6.69,1.22,.24-1.19,6.14c-.06,.31-.35,.51-.66,.45Z"/>
      <path class="cls-5" d="M89.48,61.29c-.08,.41,.19,.8,.6,.88,.41,.08,.8-.19,.88-.6s-.19-.8-.6-.88-.8,.19-.88,.6Z"/>
      <path class="cls-4" d="M132.16,104.32l-19.82,2.78c-2.12,0-3.96-1.48-4.42-3.55l-8.82-25.32,8.51-1.3,7.25,22.5,15.99,1.88,1.32,3Z"/>
      <rect class="cls-8" x="115.29" y="98.43" width="21.9" height="2.38" rx=".45" ry=".45"/>
      <rect class="cls-8" x="127.52" y="89.28" width="22.62" height="1.26" rx=".29" ry=".29" transform="translate(265.88 -15.99) rotate(107.26)"/>
      <polygon class="cls-4" points="88.1 102.5 74.96 79.09 81.64 75.34 92.35 94.42 117.6 94.34 117.17 97.59 88.1 102.5"/>
      <path class="cls-1" d="M117.6,94.34l3.32,.38c.87,.1,1.65,.55,2.17,1.25l1.62,2.2c.1,.14-.04,.33-.21,.27l-3.07-1.21c-.32-.13-.68-.06-.94,.16-.58,.51-1.37,.7-2.11,.51l-1.21-.31,.44-3.25Z"/>
    </g>
    <g>
      <circle class="cls-4" cx="63.71" cy="152.3" r="22.26"/>
      <g>
        <rect class="cls-1" x="52.59" y="138.4" width="22.23" height="29.64" rx="3.64" ry="3.64"/>
        <rect class="cls-9" x="55.24" y="144.76" width="16.94" height="1.06"/>
        <rect class="cls-9" x="55.24" y="150.05" width="16.94" height="1.06"/>
        <rect class="cls-9" x="55.24" y="155.34" width="16.94" height="1.06"/>
        <rect class="cls-9" x="55.24" y="160.63" width="16.94" height="1.06"/>
      </g>
    </g>
    <g>
      <circle class="cls-8" cx="186.15" cy="172.74" r="21.26"/>
      <g>
        <path class="cls-1" d="M192.75,164.7c-.81,0-1.46,.65-1.46,1.46s.65,1.46,1.46,1.46,1.46-.65,1.46-1.46-.65-1.46-1.46-1.46Z"/>
        <path class="cls-1" d="M186.25,166.58c-3.38,0-6.14,2.75-6.14,6.14s2.75,6.14,6.14,6.14,6.14-2.75,6.14-6.14-2.75-6.14-6.14-6.14Zm0,10.07c-2.17,0-3.93-1.76-3.93-3.93s1.76-3.93,3.93-3.93,3.93,1.76,3.93,3.93-1.76,3.93-3.93,3.93Z"/>
        <path class="cls-1" d="M191.12,185.18h-9.95c-4.13,0-7.49-3.36-7.49-7.49v-9.95c0-4.13,3.36-7.49,7.49-7.49h9.95c4.13,0,7.49,3.36,7.49,7.49v9.95c0,4.13-3.36,7.49-7.49,7.49Zm-9.95-22.58c-2.84,0-5.14,2.31-5.14,5.14v9.95c0,2.84,2.31,5.14,5.14,5.14h9.95c2.84,0,5.14-2.31,5.14-5.14v-9.95c0-2.84-2.31-5.14-5.14-5.14h-9.95Z"/>
      </g>
    </g>
  </g>
  <g>
    <path class="cls-2" d="M142,191.87c0-8.97-7.27-16.23-16.23-16.23s-16.23,7.27-16.23,16.23c0,8.1,5.94,14.82,13.7,16.04v-11.34h-4.12v-4.69h4.12v-3.58c0-4.07,2.42-6.32,6.13-6.32,1.78,0,3.63,.32,3.63,.32v4h-2.05c-2.02,0-2.65,1.25-2.65,2.54v3.05h4.5l-.72,4.69h-3.78v11.34c7.76-1.22,13.7-7.93,13.7-16.04Z"/>
    <path class="cls-1" d="M132.09,196.57l.72-4.69h-4.5v-3.05c0-1.28,.63-2.54,2.65-2.54h2.05v-4s-1.86-.32-3.63-.32c-3.71,0-6.13,2.25-6.13,6.32v3.58h-4.12v4.69h4.12v11.34c.83,.13,1.67,.2,2.54,.2s1.71-.07,2.54-.2v-11.34h3.78Z"/>
  </g>
</svg>